<svg version="1.1" xmlns="http://www.w3.org/2000/svg" xmlns:xlink="http://www.w3.org/1999/xlink" width="104.66666" height="105.023" viewBox="0,0,104.66666,105.023"><g transform="translate(-187.66667,-127.4885)"><g data-paper-data="{&quot;isPaintingLayer&quot;:true}" fill-rule="nonzero" stroke="#000000" stroke-width="2" stroke-linecap="butt" stroke-linejoin="miter" stroke-miterlimit="10" stroke-dasharray="" stroke-dashoffset="0" style="mix-blend-mode: normal"><path d="M191.33333,180c0,-26.97114 21.78881,-48.83558 48.66667,-48.83558c26.87786,0 48.66667,21.86443 48.66667,48.83558c0,26.97114 -21.78881,48.83558 -48.66667,48.83558c-26.87786,0 -48.66667,-21.86443 -48.66667,-48.83558z" fill="#000000"/><path d="M188.66667,180c0,-28.44902 22.98271,-51.5115 51.33333,-51.5115c28.35062,0 51.33333,23.06249 51.33333,51.5115c0,28.44902 -22.98271,51.5115 -51.33333,51.5115c-28.35062,0 -51.33333,-23.06249 -51.33333,-51.5115z" fill="none"/><path d="M222.5,180c0,-9.69853 7.83502,-17.56074 17.5,-17.56074c9.66499,0 17.5,7.86221 17.5,17.56074c0,9.69853 -7.83502,17.56074 -17.5,17.56074c-9.66499,0 -17.5,-7.86221 -17.5,-17.56074z" fill="#ffffff"/></g></g></svg>